# xmcd
#
# Track frame offsets: 
#        150
#        11555
#        26176
#        39366
#        53807
#        67281
#        80789
#        95797
#        107162
#        122061
#        134421
#        144321
#
# Disc length: 2081 seconds
#
# Revision: 0
# Processed by: cddbd v1.5.2PL0 Copyright (c) Steve Scherf et al.
# Submitted via: ExactAudioCopy v0.90b4
#
DISCID=b0081f0c
DTITLE=Holly Golightly and The Brokeoffs - All Her Fault
DYEAR=2014
DGENRE=Country
TTITLE0=SLC
TTITLE1=For all that ails you
TTITLE2=Pistol Pete
TTITLE3=Can't pretend
TTITLE4=Bless your heart
TTITLE5=Trouble in my mind
TTITLE6=The best
TTITLE7=1234
TTITLE8=Don't shed your light
TTITLE9=No business
TTITLE10=Perfect mess
TTITLE11=King Lee
EXTD=
EXTT0=
EXTT1=
EXTT2=
EXTT3=
EXTT4=
EXTT5=
EXTT6=
EXTT7=
EXTT8=
EXTT9=
EXTT10=
EXTT11=
PLAYORDER=
